<?xml version="1.0" encoding="utf-8"?>
<!-- Generator: Adobe Illustrator 19.2.1, SVG Export Plug-In . SVG Version: 6.00 Build 0)  -->
<svg version="1.1" id="SVGs" xmlns="http://www.w3.org/2000/svg" xmlns:xlink="http://www.w3.org/1999/xlink" x="0px" y="0px"
	 viewBox="0 0 108 233.4" style="enable-background:new 0 0 108 233.4;" xml:space="preserve">
<style type="text/css">
	.st0{fill:#47A823;}
	.st1{fill:#427337;}
</style>
<path class="st0" d="M108,130.8C107.4,84,85,40,61.1,0C27.1,30.4,4.2,72.1,0.3,116.6h0c10.2,5,31,38.6,31,38.6s-17-7.3-31.3-15.5
	c0.6,8.8,1.9,17.7,4.1,26.6c2.3,9.4,7.6,24,15.3,37.2c9.2,15.9,21.8,29.7,36.4,29.9c1.8,0,3.6-0.2,5.4-0.6
	c14.9-3.3,26-19.5,33.5-37.1c5.7-13.4,9.4-27.7,11.2-37.8C107.4,148.8,108.1,139.7,108,130.8z"/>
<path class="st1" d="M106.5,128.4c0.2,5.6,0.1,11.2-0.3,17C91.7,160.9,78,177,64.9,193.8c1.1,11.6,2.3,23.1,3.6,34.7
	c-3,2.2-5.9,3.7-8.7,4.3c-1,0.2-2.1,0.3-3.2,0.3c-1.9,0-4-0.3-6.1-0.9c-15-4.3-26-16-33.9-30.1c-9-16-14-35.3-16.7-50.6
	c15,15.7,30.5,30.6,46.9,44.9c-1.3-15.8-2.2-31.5-2.8-47.3C29,134,14.7,118.4,0.9,102.1c2.7-13.3,6.4-25.8,11.4-38.4
	c10,13,20.3,25.7,31.2,37.9c0.3-15.8,1-31.6,1.9-47.4c-5.4-7-10.7-14.1-15.9-21.3c6.3-8.3,12.8-16.2,20-23.5C52.7,6.2,56.3,3,59.9,0
	c2.7,4.4,5.2,8.7,7.7,12.9c-1.6,14.4-2.9,28.9-3.9,43.3c6.1-5.4,12.4-10.6,18.7-15.7c1.3,2.6,2.5,5.2,3.7,7.8l-0.6,0.3
	c0,0-25.1,22.1-26.7,29.7c4.5,0,19.9-9.9,32.3-18.5c1.5,3.7,3,7.4,4.3,11.2c-11.6,10-22.7,20.3-33.6,31c-0.2,15.3,0,30.6,0.4,46
	c13.5-15.1,27.4-29.6,42.2-43.5C105.5,112.6,106.2,120.5,106.5,128.4z M108,188L108,188L108,188L108,188L108,188z"/>
</svg>
